<svg width="146" height="93" viewBox="0 0 146 93" fill="none" xmlns="http://www.w3.org/2000/svg">
<path d="M3 56.71V62.9863C3.6458 63.6558 5.95991 65.2179 7.03625 65.9152C7.30533 69.1231 8.65074 77.5473 11.8797 85.581C29.9621 93.6146 48.7441 90.602 55.8748 88.0915C58.7002 83.6283 64.1895 71.7731 63.5437 60.0574C45.1384 51.0195 15.5124 54.06 3 56.71Z" fill="#C4C4C4" stroke="black" stroke-width="4"/>
<path d="M143.066 56.71V62.9863C142.42 63.6558 140.106 65.2179 139.03 65.9152C138.761 69.1231 137.416 77.5473 134.187 85.581C116.104 93.6146 97.3222 90.602 90.1915 88.0915C87.3661 83.6283 81.8768 71.7731 82.5226 60.0574C100.928 51.0195 130.554 54.06 143.066 56.71Z" fill="#C4C4C4" stroke="black" stroke-width="4"/>
<path d="M82.967 59.1899C76.1105 60.2132 72.2058 60.2785 65.0862 59.1899V63.9069C71.8005 61.3382 75.7283 61.4704 82.967 63.9069V59.1899Z" fill="black" stroke="black"/>
<path d="M2.40274 56.5647L10.1398 23.0517C11.853 15.6313 16.855 9.39639 23.7274 6.11508L26.6924 4.69941" stroke="black" stroke-width="4"/>
<path d="M143.29 56.5647L135.553 23.0517C133.839 15.6313 128.837 9.39639 121.965 6.11508L119 4.69941" stroke="black" stroke-width="4"/>
</svg>

