<svg width="153" height="267" viewBox="0 0 153 267" fill="none" xmlns="http://www.w3.org/2000/svg">
<path d="M1.18817 124.771C2.56935 107.346 10.9715 117.138 15 124.213L9.82056 145.994C6.36761 146.18 -0.193011 142.196 1.18817 124.771Z" fill="#CBBA9E" stroke="black"/>
<path d="M12.5 123.5C9.33333 119.5 3 115 3 129" stroke="#837258"/>
<path d="M151.812 124.771C150.431 107.346 142.028 117.138 138 124.213L143.179 145.994C146.632 146.18 153.193 142.196 151.812 124.771Z" fill="#CBBA9E" stroke="black"/>
<path d="M140.5 123.5C143.667 119.5 150 115 150 129" stroke="#837258"/>
<path d="M66.7419 1.11907C-4.15527 3.00815 0.0453892 80.0619 14.9866 110C46.4095 32.7297 108.331 33.7332 140.216 110C156.421 38.0515 153.265 23.079 124.967 43.2665C137.751 22.8618 142.064 -0.887922 66.7419 1.11907Z" fill="#111010" stroke="black"/>
<path d="M77 266V51.2957C51.8475 46.2792 18.999 41.2628 12.2416 132.061C-6.90438 220.35 43.0253 259.144 77 266Z" fill="#CBBA9E" stroke="#CBBA9E"/>
<path d="M27.0704 215.766C27.8232 187.66 16.0926 156.878 10.1332 145C-10.5617 225.132 51.9602 266.643 76 264.95V220.784L52.9466 218.777L51.5352 223.796L61.8857 231.324L58.5924 238.35L36.0095 223.796L41.1847 203.219L76 193.181V181.638H66.5905L36.0095 193.181L31.3047 220.784L27.0704 215.766Z" fill="#111010" stroke="black"/>
<path d="M23.5 136.5C38.1715 122.366 45.3897 123.166 56.656 136.103C43.6854 128.96 36.4285 129.976 23.5 136.5Z" fill="black"/>
<path d="M57 136.5C56.8849 136.366 56.7703 136.234 56.656 136.103M56.656 136.103C45.3897 123.166 38.1715 122.366 23.5 136.5C36.4285 129.976 43.6854 128.96 56.656 136.103Z" stroke="black"/>
<path d="M62 115.619C42.9494 104.264 33.272 103.991 18 115.619L20.5385 123C34.9308 113.638 43.2779 113.857 58.6154 123L62 115.619Z" fill="#111010" stroke="black"/>
<path d="M6 112.873V119.525C6.6501 120.235 8.97965 121.891 10.0632 122.63C10.334 126.03 11.6884 134.96 14.9389 143.476C33.1419 151.991 52.0491 148.798 59.2273 146.137C62.0715 141.406 67.5974 128.839 66.9473 116.421C48.4193 106.841 18.5958 110.064 6 112.873Z" stroke="black" stroke-width="4"/>
<path d="M76 266V51.2957C101.153 46.2792 134.001 41.2628 140.758 132.061C159.904 220.35 109.975 259.144 76 266Z" fill="#CBBA9E" stroke="#CBBA9E"/>
<path d="M124.726 215.766C123.93 187.66 136.331 156.878 142.631 145C164.508 225.132 98.4135 266.643 73 264.95V220.784L97.3707 218.777L98.8628 223.796L87.9208 231.324L91.4024 238.35L115.276 223.796L109.805 203.219L73 193.181V181.638H82.9472L115.276 193.181L120.249 220.784L124.726 215.766Z" fill="#111010" stroke="black"/>
<path d="M129.5 136.5C114.829 122.366 107.61 123.166 96.344 136.103C109.315 128.96 116.572 129.976 129.5 136.5Z" fill="black"/>
<path d="M96 136.5C96.1151 136.366 96.2297 136.234 96.344 136.103M96.344 136.103C107.61 123.166 114.829 122.366 129.5 136.5C116.572 129.976 109.315 128.96 96.344 136.103Z" stroke="black"/>
<path d="M91 115.619C110.051 104.264 119.728 103.991 135 115.619L132.462 123C118.069 113.638 109.722 113.857 94.3846 123L91 115.619Z" fill="#111010" stroke="black"/>
<path d="M147 112.873V119.525C146.35 120.235 144.02 121.891 142.937 122.63C142.666 126.03 141.312 134.96 138.061 143.476C119.858 151.991 100.951 148.798 93.7727 146.137C90.9285 141.406 85.4026 128.839 86.0527 116.421C104.581 106.841 134.404 110.064 147 112.873Z" stroke="black" stroke-width="4"/>
<path d="M86.5 115.5C79.5978 116.585 75.667 116.654 68.5 115.5V120.5C75.259 117.777 79.2131 117.917 86.5 120.5V115.5Z" fill="black" stroke="black"/>
<path d="M48 205C72.1998 220.608 84.6412 220.296 105 205H48Z" fill="#E5E5E5" stroke="black" stroke-width="2"/>
<path d="M71.4732 182.795C72.033 182.795 72.5501 182.699 73.0906 182.671C73.6571 182.641 73.3395 183.251 73.3395 183.597C73.3395 184.218 73.2384 184.662 72.4962 184.662C71.6937 184.662 73.1537 183.446 73.3948 183.189C73.6168 182.953 73.7474 183.17 73.7611 183.417C73.7831 183.814 72.9926 184.097 72.7174 184.261C72.4345 184.429 71.1783 184.857 71.5492 184.033C71.7125 183.67 72.4851 182.458 72.6897 183.39C72.7474 183.653 72.6924 183.891 72.5929 184.136C72.5188 184.32 72.1671 184.608 72.4201 184.406C72.617 184.248 73.8786 183.694 73.8371 184.316C73.7927 184.982 72.6363 186.016 72.0054 185.332C71.6722 184.971 72.9301 184.464 73.063 184.966C73.1386 185.251 72.9724 185.557 72.8141 185.781C72.5816 186.111 72.6958 185.92 72.8971 185.92C72.916 185.92 72.6387 187.041 72.5929 187.109C72.4532 187.314 72.0354 187.339 72.2473 187.026C72.4558 186.718 72.626 186.497 73.0215 186.535C73.8137 186.61 72.2954 187.948 71.7773 187.399C71.4576 187.06 73.4068 185.781 73.6505 185.781C74.2246 185.781 74.7939 186.945 74.8809 187.406C74.9923 187.996 74.3643 188.306 73.9063 188.45C72.8371 188.786 73.1828 187.812 73.8786 187.482C74.1273 187.364 74.5152 187.361 74.7496 187.523C75.199 187.835 73.9966 188.889 73.8371 189.009C73.6285 189.167 71.7811 190.34 71.5561 189.922C71.3151 189.474 72.0106 189.067 72.2888 188.892C72.7446 188.605 74.4309 188.677 73.5952 189.459C73.0884 189.933 72.2487 190.283 71.563 190.371C70.6139 190.494 71.9444 189.629 72.1782 189.528C72.7399 189.284 73.8486 189.359 73.3118 190.254C73.1341 190.55 72.7004 190.859 72.351 190.924C71.9429 191.001 73.3523 189.931 73.4777 189.846C73.5361 189.806 74.3499 189.253 74.2519 189.721C74.128 190.314 73.4252 190.719 72.9869 191.055C72.847 191.163 72.4376 191.513 72.669 191.076C72.8043 190.821 73.3504 190.737 73.616 190.661C74.0251 190.545 73.7622 192.113 73.0906 192.113C72.0682 192.113 73.974 190.56 73.616 191.657C73.5543 191.846 73.0282 193.184 72.6482 192.97C72.4941 192.883 72.9342 192.408 73.0077 192.334C73.3204 192.022 72.3223 192.897 72.0192 193.219C71.4288 193.846 72.6024 192.99 72.745 192.873C73.6139 192.161 74.3509 192.713 75.2058 192.998" stroke="#111010" stroke-linecap="round" stroke-linejoin="round"/>
<rect x="72" y="223" width="2" height="41" fill="#111010"/>
<path d="M73.7182 221.436C73.5727 221.436 73.4309 221.436 73.2882 221.436C73.2198 221.436 73.1404 221.435 73.0778 221.406C72.9942 221.368 72.8672 221.391 72.7757 221.391C72.721 221.391 72.5873 221.396 72.5446 221.362C72.5232 221.344 72.4941 221.346 72.5298 221.369C72.5638 221.391 72.5944 221.418 72.6288 221.439C72.7638 221.523 72.8943 221.61 73.0448 221.667C73.0763 221.679 73.2306 221.718 73.1306 221.763C72.9622 221.838 72.7646 221.864 72.5892 221.923C72.5593 221.933 72.4512 221.97 72.543 221.971C72.7319 221.973 72.921 221.971 73.11 221.971C73.1657 221.971 73.355 221.948 73.2082 222.004C73.059 222.061 72.87 222.055 72.7394 222.154C72.6709 222.206 72.7927 222.192 72.8137 222.19C72.9555 222.18 73.1007 222.17 73.2428 222.179C73.2798 222.182 73.248 222.191 73.2329 222.197C73.1336 222.232 73.0328 222.264 72.9325 222.296C72.9015 222.306 72.8206 222.301 72.8401 222.327C72.8574 222.35 72.9939 222.361 73.0109 222.363C73.1626 222.388 73.3335 222.358 73.4805 222.396C73.5374 222.411 73.4432 222.447 73.4376 222.449C73.3163 222.503 73.186 222.535 73.0613 222.58C72.9582 222.616 72.6506 222.71 72.76 222.71C72.7954 222.71 72.8335 222.696 72.8682 222.69C72.8686 222.69 72.9707 222.679 72.9622 222.669C72.94 222.641 72.6972 222.632 72.9342 222.66C73.103 222.681 73.2852 222.674 73.436 222.758" stroke="#111010" stroke-linecap="round" stroke-linejoin="round"/>
<path d="M71.9653 264.174C72.1941 264.138 72.4404 264.159 72.6718 264.159C72.9509 264.159 73.2306 264.174 73.5103 264.174" stroke="#111010" stroke-linecap="round" stroke-linejoin="round"/>
<path d="M71.5522 194.39C71.8099 194.201 72.153 194.037 72.4752 194.028C72.7349 194.02 73.1033 193.935 73.3175 193.764C73.3726 193.72 73.4473 193.728 73.5135 193.698C73.592 193.663 73.6454 193.603 73.7112 193.552C73.7702 193.506 73.8272 193.433 73.8998 193.409C73.9791 193.382 74.0734 193.434 74.1562 193.434C74.2576 193.434 74.3025 193.494 74.3943 193.502C74.5811 193.519 74.7328 193.598 74.9125 193.634C75.0444 193.66 75.251 193.701 75.3684 193.764C75.5108 193.84 75.7117 193.833 75.8702 193.896" stroke="black" stroke-linecap="round" stroke-linejoin="round"/>
<path d="M71 131V145.583C71 150.117 69.7919 154.569 67.5 158.481L64.8403 163.02C64.2901 163.959 64 165.028 64 166.117V166.595C64 168.894 65.4443 170.946 67.6091 171.722V171.722C68.5199 172.049 69.3273 172.612 69.9483 173.354L71 174.61L72 175.805V175.805C72.6338 176.562 73.5706 177 74.5581 177H76V177C78.8521 177 81.4889 175.653 83.6556 173.799C86.0026 171.789 88.6854 170.336 90 172.221" stroke="#60533F" stroke-width="2"/>
</svg>

